<svg width="150" height="150" viewBox="0 0 100 100" fill="none" xmlns="http://www.w3.org/2000/svg">
<path fill-rule="evenodd" clip-rule="evenodd" d="M50.5637 8.42725C27.2924 8.42725 8.42728 27.2924 8.42728 50.5637V80.0983C8.42728 91.0424 21.3898 96.8154 29.5245 89.4942L32.2588 87.0334C33.5465 85.8744 35.4124 85.6218 36.9619 86.3966L44.9105 90.3709C48.4693 92.1503 52.6581 92.1503 56.2169 90.3709L64.1655 86.3966C65.715 85.6218 67.5809 85.8744 68.8687 87.0334L71.6029 89.4942C79.7376 96.8154 92.7001 91.0424 92.7001 80.0983V50.5637C92.7001 27.2924 73.835 8.42725 50.5637 8.42725ZM37.0782 56.4604C35.6806 54.5997 33.0392 54.2243 31.1785 55.6219C29.3178 57.0195 28.9424 59.6609 30.3401 61.5216C34.9454 67.6528 42.2912 71.6319 50.5653 71.6319C58.8393 71.6319 66.1852 67.6528 70.7905 61.5216C72.1881 59.6609 71.8127 57.0195 69.952 55.6219C68.0913 54.2243 65.4499 54.5997 64.0523 56.4604C60.9702 60.5637 56.0767 63.2047 50.5653 63.2047C45.0538 63.2047 40.1603 60.5637 37.0782 56.4604ZM37.9228 37.9228C40.2499 37.9228 42.1364 39.8093 42.1364 42.1364V42.1837C42.1364 44.5108 40.2499 46.3973 37.9228 46.3973C35.5957 46.3973 33.7091 44.5108 33.7091 42.1837V42.1364C33.7091 39.8093 35.5957 37.9228 37.9228 37.9228ZM67.4183 42.1364C67.4183 39.8093 65.5318 37.9228 63.2047 37.9228C60.8775 37.9228 58.991 39.8093 58.991 42.1364V42.1837C58.991 44.5108 60.8775 46.3973 63.2047 46.3973C65.5318 46.3973 67.4183 44.5108 67.4183 42.1837V42.1364Z" fill="#D7D7DF"/>
</svg>
