<svg width="11" height="5" viewBox="0 0 11 5" fill="none" xmlns="http://www.w3.org/2000/svg">
<path d="M5.74281 4.79076L10.1158 1.11195C10.1883 1.05153 10.2459 0.979645 10.2852 0.900441C10.3245 0.821237 10.3447 0.736283 10.3447 0.65048C10.3447 0.564677 10.3245 0.479723 10.2852 0.400518C10.2459 0.321314 10.1883 0.249428 10.1158 0.189005C9.97077 0.0679483 9.7746 0 9.57013 0C9.36566 0 9.16949 0.0679483 9.02448 0.189005L5.15459 3.40633L1.3234 0.189005C1.17838 0.0679483 0.98222 0 0.777745 0C0.573272 0 0.377106 0.0679483 0.232091 0.189005C0.158959 0.249201 0.10078 0.320986 0.0609217 0.400201C0.0210648 0.479416 0.000323296 0.564485 -0.000101089 0.65048C0.000323296 0.736475 0.0210648 0.821544 0.0609217 0.900759C0.10078 0.979973 0.158959 1.05176 0.232091 1.11195L4.60506 4.79076C4.67754 4.85673 4.76551 4.90938 4.86341 4.9454C4.96132 4.98141 5.06705 5 5.17394 5C5.28083 5 5.38655 4.98141 5.48446 4.9454C5.58237 4.90938 5.67033 4.85673 5.74281 4.79076Z" fill="#1C1B1A"/>
</svg>
