<svg width="35" height="35" viewBox="0 0 35 35" fill="none" xmlns="http://www.w3.org/2000/svg">
<path d="M17.5013 0C12.7485 0 12.1521 0.0207816 10.2854 0.10573C8.42233 0.191042 7.15065 0.48599 6.03793 0.91875C4.88693 1.36573 3.91056 1.96365 2.93784 2.93672C1.9644 3.90943 1.36647 4.88578 0.91803 6.03641C0.484172 7.14948 0.188856 8.42151 0.105001 10.2838C0.0218753 12.1505 0 12.7473 0 17.5C0 22.2527 0.0211464 22.8473 0.105731 24.714C0.191409 26.577 0.486359 27.8487 0.91876 28.9614C1.36611 30.1124 1.96403 31.0888 2.93711 32.0615C3.90947 33.0349 4.88583 33.6343 6.03611 34.0813C7.14955 34.514 8.4216 34.809 10.2843 34.8943C12.151 34.9792 12.7471 35 17.4995 35C22.2526 35 22.8472 34.9792 24.7139 34.8943C26.5769 34.809 27.8501 34.514 28.9635 34.0813C30.1142 33.6343 31.0891 33.0349 32.0614 32.0615C33.0349 31.0888 33.6328 30.1124 34.0812 28.9618C34.5115 27.8487 34.8068 26.5767 34.8943 24.7144C34.9781 22.8477 35 22.2527 35 17.5C35 12.7473 34.9781 12.1508 34.8943 10.2842C34.8068 8.42115 34.5115 7.14948 34.0812 6.03677C33.6328 4.88578 33.0349 3.90943 32.0614 2.93672C31.088 1.96328 30.1145 1.36536 28.9624 0.91875C27.8468 0.48599 26.5744 0.191042 24.7114 0.10573C22.8447 0.0207816 22.2504 0 17.4962 0H17.5013ZM15.9314 3.15365C16.3973 3.15292 16.9172 3.15365 17.5013 3.15365C22.1738 3.15365 22.7276 3.17042 24.5728 3.25427C26.2791 3.33229 27.2051 3.6174 27.822 3.85693C28.6387 4.17411 29.2209 4.55328 29.8331 5.16578C30.4456 5.77828 30.8248 6.36162 31.1427 7.17828C31.3822 7.79443 31.6677 8.72047 31.7453 10.4267C31.8292 12.2715 31.8474 12.8257 31.8474 17.496C31.8474 22.1663 31.8292 22.7205 31.7453 24.5653C31.6673 26.2715 31.3822 27.1976 31.1427 27.8137C30.8255 28.6304 30.4456 29.2119 29.8331 29.824C29.2206 30.4365 28.6391 30.8157 27.822 31.1329C27.2059 31.3735 26.2791 31.6579 24.5728 31.7359C22.728 31.8197 22.1738 31.838 17.5013 31.838C12.8284 31.838 12.2746 31.8197 10.4297 31.7359C8.72348 31.6571 7.79743 31.372 7.18018 31.1325C6.3635 30.8153 5.78016 30.4361 5.16766 29.8236C4.55515 29.2111 4.17598 28.6293 3.85806 27.8122C3.61853 27.1961 3.33306 26.2701 3.2554 24.5638C3.17154 22.719 3.15477 22.1648 3.15477 17.4916C3.15477 12.8184 3.17154 12.2671 3.2554 10.4223C3.33342 8.7161 3.61853 7.79005 3.85806 7.17318C4.17525 6.35651 4.55515 5.77318 5.16766 5.16068C5.78016 4.54818 6.3635 4.16901 7.18018 3.85109C7.79706 3.61047 8.72348 3.32609 10.4297 3.24771C12.0441 3.17479 12.6698 3.15292 15.9314 3.14927V3.15365Z" fill="black"/>
<path d="M26.8051 6.01639C26.3897 6.01639 25.9837 6.13957 25.6383 6.37035C25.2929 6.60114 25.0238 6.92915 24.8649 7.31292C24.7059 7.69669 24.6644 8.11897 24.7455 8.52635C24.8266 8.93373 25.0266 9.30791 25.3204 9.60157C25.6142 9.89523 25.9884 10.0952 26.3958 10.1761C26.8033 10.2571 27.2255 10.2154 27.6092 10.0563C27.993 9.89727 28.3209 9.62799 28.5516 9.28256C28.7822 8.93712 28.9053 8.53103 28.9051 8.11566C28.9051 6.95628 27.9645 6.01639 26.8051 6.01639Z" fill="black"/>
<path fill-rule="evenodd" clip-rule="evenodd" d="M17.4636 8.47003C12.5005 8.47003 8.47657 12.4939 8.47657 17.457C8.47657 22.4201 12.5005 26.4422 17.4636 26.4422C22.4268 26.4422 26.4496 22.4201 26.4496 17.457C26.4496 12.4939 22.4268 8.47003 17.4636 8.47003ZM17.5 23.2422C20.6713 23.2422 23.2422 20.6714 23.2422 17.5C23.2422 14.3287 20.6713 11.7578 17.5 11.7578C14.3287 11.7578 11.7578 14.3287 11.7578 17.5C11.7578 20.6714 14.3287 23.2422 17.5 23.2422Z" fill="black"/>
</svg>
