<svg width="59" height="59" viewBox="0 0 59 59" fill="none" xmlns="http://www.w3.org/2000/svg">
<rect x="1.79932" y="1.55634" width="56.0792" height="56.0792" rx="13.0798" stroke="#1C1B1A" stroke-width="2"/>
<path fill-rule="evenodd" clip-rule="evenodd" d="M29.5729 23.0451C29.8092 23.2813 29.7938 23.6873 29.5513 23.9916L29.4795 24.0718L16.288 37.2634C15.9787 37.5727 15.519 37.6145 15.2613 37.3568C15.025 37.1205 15.0404 36.7145 15.2829 36.4102L15.3546 36.3301L28.5462 23.1384C28.8555 22.8291 29.3151 22.7873 29.5729 23.0451Z" fill="#1C1B1A" stroke="#1C1B1A"/>
<path d="M30.8176 21.8005V33.6903C30.8117 34.0607 30.5065 34.3658 30.1361 34.3717C29.7994 34.3771 29.5245 34.1334 29.4818 33.8108L29.4761 33.7118L29.4544 23.1637L18.9063 23.142C18.5696 23.1474 18.2948 22.9037 18.2521 22.581L18.2463 22.482C18.2518 22.1453 18.5044 21.8624 18.8286 21.8094L18.9279 21.8005H30.8176Z" fill="#1C1B1A" stroke="#1C1B1A"/>
</svg>
