<svg width="30" height="30" viewBox="0 0 30 30" fill="none" xmlns="http://www.w3.org/2000/svg">
<path d="M22 13.8375H16V8.13122C16 7.87899 15.8946 7.63708 15.7071 7.45873C15.5196 7.28037 15.2652 7.18018 15 7.18018C14.7348 7.18018 14.4804 7.28037 14.2929 7.45873C14.1054 7.63708 14 7.87899 14 8.13122V13.8375H8C7.73478 13.8375 7.48043 13.9377 7.29289 14.116C7.10536 14.2944 7 14.5363 7 14.7885C7 15.0407 7.10536 15.2826 7.29289 15.461C7.48043 15.6393 7.73478 15.7395 8 15.7395H14V21.4458C14 21.698 14.1054 21.9399 14.2929 22.1183C14.4804 22.2966 14.7348 22.3968 15 22.3968C15.2652 22.3968 15.5196 22.2966 15.7071 22.1183C15.8946 21.9399 16 21.698 16 21.4458V15.7395H22C22.2652 15.7395 22.5196 15.6393 22.7071 15.461C22.8946 15.2826 23 15.0407 23 14.7885C23 14.5363 22.8946 14.2944 22.7071 14.116C22.5196 13.9377 22.2652 13.8375 22 13.8375Z" fill="black"/>
<circle cx="15" cy="15" r="14.25" stroke="black" stroke-width="1.5"/>
</svg>
