<svg width="20" height="20" viewBox="0 0 20 20" fill="none" xmlns="http://www.w3.org/2000/svg">
<path d="M19.7141 18.2941L18.7841 17.3641L18.6941 17.2641L18.6341 17.1941L18.1341 16.6941L18.0041 16.6241L12.8241 11.4241L12.7341 11.3441L9.53409 8.13409L9.43409 8.00409L1.71409 0.294092C1.62085 0.200853 1.51016 0.126892 1.38834 0.0764319C1.26652 0.0259715 1.13595 0 1.00409 0C0.872232 0 0.741664 0.0259715 0.619842 0.0764319C0.49802 0.126892 0.38733 0.200853 0.294092 0.294092C0.105788 0.482395 0 0.73779 0 1.00409C0 1.27039 0.105788 1.52579 0.294092 1.71409L1.29409 2.71409C1.10269 3.11717 1.00362 3.55788 1.00409 4.00409V16.0041C1.00409 16.7997 1.32016 17.5628 1.88277 18.1254C2.44538 18.688 3.20844 19.0041 4.00409 19.0041H16.0041C16.4455 18.9988 16.8799 18.8927 17.2741 18.6941C17.2741 18.6941 17.2741 18.6941 17.3241 18.6941L18.2741 19.6941C18.3671 19.7878 18.4777 19.8622 18.5995 19.913C18.7214 19.9638 18.8521 19.9899 18.9841 19.9899C19.1161 19.9899 19.2468 19.9638 19.3687 19.913C19.4905 19.8622 19.6011 19.7878 19.6941 19.6941C19.88 19.5098 19.9862 19.2599 19.99 18.9982C19.9937 18.7364 19.8947 18.4836 19.7141 18.2941ZM3.00409 4.41409L6.24409 7.65409C5.99861 7.78066 5.7729 7.94236 5.57409 8.13409L3.00409 10.7141V4.41409ZM4.00409 17.0041C3.73888 17.0041 3.48452 16.8987 3.29699 16.7112C3.10945 16.5237 3.00409 16.2693 3.00409 16.0041V13.5441L7.00409 9.54409C7.15378 9.40564 7.35019 9.32873 7.55409 9.32873C7.758 9.32873 7.9544 9.40564 8.10409 9.54409L15.5941 17.0041H4.00409ZM7.66409 3.00409H16.0041C16.2693 3.00409 16.5237 3.10945 16.7112 3.29699C16.8987 3.48452 17.0041 3.73888 17.0041 4.00409V9.94409C16.9109 9.85085 16.8002 9.77689 16.6783 9.72643C16.5565 9.67597 16.426 9.65 16.2941 9.65C16.1622 9.65 16.0317 9.67597 15.9098 9.72643C15.788 9.77689 15.6773 9.85085 15.5841 9.94409C15.4909 10.0373 15.4169 10.148 15.3664 10.2698C15.316 10.3917 15.29 10.5222 15.29 10.6541C15.29 10.7859 15.316 10.9165 15.3664 11.0383C15.4169 11.1602 15.4909 11.2709 15.5841 11.3641L17.3241 13.1041C17.4171 13.1978 17.5277 13.2722 17.6495 13.323C17.7714 13.3738 17.9021 13.3999 18.0341 13.3999C18.1661 13.3999 18.2968 13.3738 18.4187 13.323C18.5405 13.2722 18.6511 13.1978 18.7441 13.1041C18.838 13.0095 18.912 12.897 18.9618 12.7734C19.0116 12.6497 19.0362 12.5174 19.0341 12.3841V4.00409C19.0341 3.20844 18.718 2.44538 18.1554 1.88277C17.5928 1.32016 16.8297 1.00409 16.0341 1.00409H7.66409C7.39888 1.00409 7.14452 1.10945 6.95698 1.29698C6.76945 1.48452 6.66409 1.73888 6.66409 2.00409C6.66409 2.26931 6.76945 2.52366 6.95698 2.7112C7.14452 2.89873 7.39888 3.00409 7.66409 3.00409Z" fill="black"/>
</svg>
