<svg width="21" height="10" viewBox="0 0 21 10" fill="none" xmlns="http://www.w3.org/2000/svg">
<path d="M11.4859 9.58151L20.2318 2.22391C20.3769 2.10306 20.4921 1.95929 20.5706 1.80088C20.6492 1.64247 20.6897 1.47257 20.6897 1.30096C20.6897 1.12935 20.6492 0.959445 20.5706 0.801037C20.4921 0.642629 20.3769 0.498855 20.2318 0.37801C19.9418 0.135897 19.5495 0 19.1405 0C18.7316 0 18.3392 0.135897 18.0492 0.37801L10.3094 6.81266L2.64704 0.37801C2.35701 0.135897 1.96468 0 1.55573 0C1.14679 0 0.754456 0.135897 0.464426 0.37801C0.318163 0.498402 0.201803 0.641973 0.122087 0.800402C0.0423737 0.958832 0.000890732 1.12897 4.19617e-05 1.30096C0.000890732 1.47295 0.0423737 1.64309 0.122087 1.80152C0.201803 1.95995 0.318163 2.10352 0.464426 2.22391L9.21037 9.58151C9.35533 9.71346 9.53125 9.81876 9.72707 9.89079C9.92289 9.96282 10.1343 10 10.3481 10C10.5619 10 10.7734 9.96282 10.9692 9.89079C11.165 9.81876 11.3409 9.71346 11.4859 9.58151Z" fill="#A9A9A9"/>
</svg>
