<svg width="15" height="15" viewBox="0 0 15 15" fill="none" xmlns="http://www.w3.org/2000/svg">
<path d="M12.75 0H2.25C1.65326 0 1.08097 0.23705 0.65901 0.659001C0.237053 1.08095 0 1.65324 0 2.24997V9.74986C0 10.3466 0.237053 10.9189 0.65901 11.3408C1.08097 11.7628 1.65326 11.9998 2.25 11.9998H10.9425L13.7175 14.7823C13.7876 14.8518 13.8707 14.9068 13.9621 14.9441C14.0534 14.9814 14.1513 15.0004 14.25 14.9998C14.3484 15.0023 14.446 14.9818 14.535 14.9398C14.672 14.8835 14.7892 14.788 14.872 14.6652C14.9547 14.5424 14.9993 14.3979 15 14.2498V2.24997C15 1.65324 14.7629 1.08095 14.341 0.659001C13.919 0.23705 13.3467 0 12.75 0ZM2.8275 10.4999H2.25C2.05109 10.4999 1.86032 10.4208 1.71967 10.2802C1.57902 10.1395 1.5 9.94877 1.5 9.74986V9.43487L3.975 6.9674C4.11552 6.82772 4.30561 6.74931 4.50375 6.74931C4.70189 6.74931 4.89198 6.82772 5.0325 6.9674L5.685 7.61989L2.8275 10.4999ZM13.5 12.4423L11.7825 10.7174C11.7124 10.6478 11.6293 10.5928 11.5379 10.5555C11.4466 10.5182 11.3487 10.4993 11.25 10.4999H4.9425L9.975 5.46742C10.1152 5.33001 10.3037 5.25303 10.5 5.25303C10.6963 5.25303 10.8848 5.33001 11.025 5.46742L13.5 7.93489V12.4423ZM13.5 5.81992L12.09 4.41744C11.6681 3.99609 11.0963 3.75943 10.5 3.75943C9.90375 3.75943 9.33188 3.99609 8.91 4.41744L6.75 6.56991L6.09 5.91742C5.66254 5.50675 5.09277 5.2774 4.5 5.2774C3.90723 5.2774 3.33746 5.50675 2.91 5.91742L1.5 7.3199V2.24997C1.5 2.05106 1.57902 1.8603 1.71967 1.71965C1.86032 1.579 2.05109 1.49998 2.25 1.49998H12.75C12.9489 1.49998 13.1397 1.579 13.2803 1.71965C13.421 1.8603 13.5 2.05106 13.5 2.24997V5.81992Z" fill="#A9A9A9"/>
</svg>
